<svg width="22" height="16" viewBox="0 0 22 16" fill="none" xmlns="http://www.w3.org/2000/svg">
<path fill-rule="evenodd" clip-rule="evenodd" d="M18.5541 4.54506C18.7512 4.81412 18.6889 5.1892 18.4131 5.38224L11.8778 9.97727C11.5938 10.1783 11.2587 10.2783 10.9247 10.2783C10.5926 10.2783 10.2596 10.1793 9.97559 9.98127L3.39743 5.38324C3.12261 5.1912 3.05825 4.81612 3.2544 4.54606C3.45157 4.276 3.83468 4.21298 4.10949 4.40703L10.6866 9.00405C10.8286 9.10307 11.0197 9.10407 11.1627 9.00305L17.699 4.40803C17.9738 4.21298 18.3569 4.277 18.5541 4.54506ZM20.5084 13.179C20.5084 13.9512 19.8658 14.5803 19.0782 14.5803H2.73238C1.9437 14.5803 1.30212 13.9512 1.30212 13.179V3.17675C1.30212 2.40458 1.9437 1.77644 2.73238 1.77644H19.0782C19.8658 1.77644 20.5084 2.40458 20.5084 3.17675V13.179ZM19.0782 0.576172H2.73239C1.2674 0.576172 0.0762024 1.74343 0.0762024 3.17675V13.179C0.0762024 14.6133 1.2674 15.7796 2.73239 15.7796H19.0782C20.5421 15.7796 21.7333 14.6133 21.7333 13.179V3.17675C21.7333 1.74343 20.5421 0.576172 19.0782 0.576172Z" fill="#757575"/>
</svg>
