<svg width="19" height="23" viewBox="0 0 19 23" fill="none" xmlns="http://www.w3.org/2000/svg">
<path fill-rule="evenodd" clip-rule="evenodd" d="M11.6049 14.3612C11.6049 15.4733 10.6647 16.3759 9.50635 16.3759C8.34795 16.3759 7.40781 15.4733 7.40781 14.3612C7.40781 13.249 8.34795 12.3465 9.50635 12.3465C10.6647 12.3465 11.6049 13.249 11.6049 14.3612ZM17.271 17.3832C17.271 19.272 15.6709 20.8082 13.7035 20.8082H5.30922C3.34182 20.8082 1.74167 19.272 1.74167 17.3832V11.3391C1.74167 9.45031 3.34182 7.91409 5.30922 7.91409H13.7035C15.6709 7.91409 17.271 9.45031 17.271 11.3391V17.3832ZM5.93878 5.29496C5.93878 3.40617 7.53893 1.86996 9.50633 1.86996C10.4507 1.86996 11.3489 2.22656 12.0267 2.86825C12.7024 3.52504 13.0739 4.38734 13.0739 5.29496V6.70526H5.93878V5.29496ZM14.333 6.74455V5.29497C14.333 4.06801 13.8325 2.90451 12.9176 2.01401C11.9952 1.14164 10.7844 0.661133 9.50635 0.661133C6.84433 0.661133 4.67966 2.73931 4.67966 5.29497V6.74455C2.31459 7.04172 0.482544 8.98894 0.482544 11.3391V17.3832C0.482544 19.9389 2.64721 22.0171 5.30923 22.0171H13.7035C16.3644 22.0171 18.5302 19.9389 18.5302 17.3832V11.3391C18.5302 8.98894 16.6981 7.04172 14.333 6.74455Z" fill="#757575"/>
</svg>
